<?xml version="1.0" standalone="no"?><!DOCTYPE svg PUBLIC "-//W3C//DTD SVG 1.1//EN" "http://www.w3.org/Graphics/SVG/1.1/DTD/svg11.dtd"><svg xmlns:xlink="http://www.w3.org/1999/xlink" version="1.1" style="font-family:open sans;font-size:12px;" xmlns="http://www.w3.org/2000/svg" width="1040" height="410"><desc>Created with Highcharts 4.1.5</desc><defs><clipPath id="highcharts-69"><rect x="0" y="0" width="760" height="194"></rect></clipPath></defs><rect x="0" y="0" width="1040" height="410" strokeWidth="0" fill="#FFFFFF" class=" highcharts-background"></rect><g class="highcharts-grid" ></g><g class="highcharts-grid" ></g><g class="highcharts-grid" ></g><g class="highcharts-grid" ><path fill="none" d="M 116 331.5 L 876 331.5" stroke="#D8D8D8" stroke-width="1"  opacity="1"></path><path fill="none" d="M 116 266.5 L 876 266.5" stroke="#D8D8D8" stroke-width="1"  opacity="1"></path><path fill="none" d="M 116 202.5 L 876 202.5" stroke="#D8D8D8" stroke-width="1"  opacity="1"></path><path fill="none" d="M 116 136.5 L 876 136.5" stroke="#D8D8D8" stroke-width="1"  opacity="1"></path></g><g class="highcharts-axis" ><path fill="none" d="M 173.5 331 L 173.5 341" stroke="#C0D0E0" stroke-width="1" opacity="1"></path><path fill="none" d="M 232.5 331 L 232.5 341" stroke="#C0D0E0" stroke-width="1" opacity="1"></path><path fill="none" d="M 290.5 331 L 290.5 341" stroke="#C0D0E0" stroke-width="1" opacity="1"></path><path fill="none" d="M 349.5 331 L 349.5 341" stroke="#C0D0E0" stroke-width="1" opacity="1"></path><path fill="none" d="M 407.5 331 L 407.5 341" stroke="#C0D0E0" stroke-width="1" opacity="1"></path><path fill="none" d="M 466.5 331 L 466.5 341" stroke="#C0D0E0" stroke-width="1" opacity="1"></path><path fill="none" d="M 524.5 331 L 524.5 341" stroke="#C0D0E0" stroke-width="1" opacity="1"></path><path fill="none" d="M 583.5 331 L 583.5 341" stroke="#C0D0E0" stroke-width="1" opacity="1"></path><path fill="none" d="M 641.5 331 L 641.5 341" stroke="#C0D0E0" stroke-width="1" opacity="1"></path><path fill="none" d="M 700.5 331 L 700.5 341" stroke="#C0D0E0" stroke-width="1" opacity="1"></path><path fill="none" d="M 758.5 331 L 758.5 341" stroke="#C0D0E0" stroke-width="1" opacity="1"></path><path fill="none" d="M 817.5 331 L 817.5 341" stroke="#C0D0E0" stroke-width="1" opacity="1"></path><path fill="none" d="M 876.5 331 L 876.5 341" stroke="#C0D0E0" stroke-width="1" opacity="1"></path><path fill="none" d="M 115.5 331 L 115.5 341" stroke="#C0D0E0" stroke-width="1" opacity="1"></path><path fill="none" d="M 116 331.5 L 876 331.5" stroke="#C0D0E0" stroke-width="1"  visibility="visible"></path></g><g class="highcharts-axis" ><path fill="none" d="M 173.5 137 L 173.5 127" stroke="#C0D0E0" stroke-width="1" opacity="1"></path><path fill="none" d="M 232.5 137 L 232.5 127" stroke="#C0D0E0" stroke-width="1" opacity="1"></path><path fill="none" d="M 290.5 137 L 290.5 127" stroke="#C0D0E0" stroke-width="1" opacity="1"></path><path fill="none" d="M 349.5 137 L 349.5 127" stroke="#C0D0E0" stroke-width="1" opacity="1"></path><path fill="none" d="M 407.5 137 L 407.5 127" stroke="#C0D0E0" stroke-width="1" opacity="1"></path><path fill="none" d="M 466.5 137 L 466.5 127" stroke="#C0D0E0" stroke-width="1" opacity="1"></path><path fill="none" d="M 524.5 137 L 524.5 127" stroke="#C0D0E0" stroke-width="1" opacity="1"></path><path fill="none" d="M 583.5 137 L 583.5 127" stroke="#C0D0E0" stroke-width="1" opacity="1"></path><path fill="none" d="M 641.5 137 L 641.5 127" stroke="#C0D0E0" stroke-width="1" opacity="1"></path><path fill="none" d="M 700.5 137 L 700.5 127" stroke="#C0D0E0" stroke-width="1" opacity="1"></path><path fill="none" d="M 758.5 137 L 758.5 127" stroke="#C0D0E0" stroke-width="1" opacity="1"></path><path fill="none" d="M 817.5 137 L 817.5 127" stroke="#C0D0E0" stroke-width="1" opacity="1"></path><path fill="none" d="M 876.5 137 L 876.5 127" stroke="#C0D0E0" stroke-width="1" opacity="1"></path><path fill="none" d="M 115.5 137 L 115.5 127" stroke="#C0D0E0" stroke-width="1" opacity="1"></path><path fill="none" d="M 116 136.5 L 876 136.5" stroke="#C0D0E0" stroke-width="1"  visibility="visible"></path></g><g class="highcharts-axis" ><text x="1012.7333297729492"  text-anchor="middle" transform="translate(0,0) rotate(90 1012.7333297729492 234)" class=" highcharts-yaxis-title" style="color:#000000;fill:#000000;" visibility="visible" y="234"><tspan>Sociology doctorates awarded (US)</tspan></text></g><g class="highcharts-axis" ><text x="26.849998474121094"  text-anchor="middle" transform="translate(0,0) rotate(270 26.849998474121094 234)" class=" highcharts-yaxis-title" style="color:#ba0f27;fill:#ba0f27;" visibility="visible" y="234"><tspan>Worldwide non-commercial space launches</tspan></text></g><g class="highcharts-series-group" ><g class="highcharts-series" visibility="visible"  transform="translate(116,137) scale(1 1)" clip-path="url(#highcharts-69)"><path fill="none" d="M 29.23076923076923 96.03 C 29.23076923076923 96.03 64.3076923076923 111.74400000000001 87.6923076923077 117.37 C 111.0769230769231 122.99600000000001 122.76923076923076 124.16 146.15384615384616 124.16 C 169.53846153846152 124.16 181.23076923076923 80.51 204.6153846153846 80.51 C 228 80.51 239.6923076923077 116.4 263.0769230769231 129.98000000000002 C 286.46153846153845 143.56 298.1538461538462 148.41 321.53846153846155 148.41 C 344.92307692307696 148.41 356.61538461538464 99.91 380 99.91 C 403.38461538461536 99.91 415.07692307692304 104.56599999999997 438.46153846153845 116.4 C 461.8461538461538 128.23399999999998 473.53846153846155 159.07999999999998 496.9230769230769 159.07999999999998 C 520.3076923076924 159.07999999999998 532 117.37 555.3846153846155 117.37 C 578.7692307692308 117.37 590.4615384615386 120.28 613.8461538461539 120.28 C 637.2307692307693 120.28 648.9230769230769 113.102 672.3076923076924 96.03 C 695.6923076923078 78.958 730.7692307692308 34.920000000000016 730.7692307692308 34.920000000000016" stroke="#000000" stroke-width="2"  stroke-linejoin="round" stroke-linecap="round"></path></g><g class="highcharts-markers" visibility="visible"  transform="translate(116,137) scale(1 1)" clip-path="none"><path fill="#000000" d="M 730 30.920000000000016 C 735.328 30.920000000000016 735.328 38.920000000000016 730 38.920000000000016 C 724.672 38.920000000000016 724.672 30.920000000000016 730 30.920000000000016 Z"></path><path fill="#000000" d="M 672 92.03 C 677.328 92.03 677.328 100.03 672 100.03 C 666.672 100.03 666.672 92.03 672 92.03 Z"></path><path fill="#000000" d="M 613 116.28 C 618.328 116.28 618.328 124.28 613 124.28 C 607.672 124.28 607.672 116.28 613 116.28 Z"></path><path fill="#000000" d="M 555 113.37 C 560.328 113.37 560.328 121.37 555 121.37 C 549.672 121.37 549.672 113.37 555 113.37 Z"></path><path fill="#000000" d="M 496 155.07999999999998 C 501.328 155.07999999999998 501.328 163.07999999999998 496 163.07999999999998 C 490.672 163.07999999999998 490.672 155.07999999999998 496 155.07999999999998 Z"></path><path fill="#000000" d="M 438 112.4 C 443.328 112.4 443.328 120.4 438 120.4 C 432.672 120.4 432.672 112.4 438 112.4 Z"></path><path fill="#000000" d="M 380 95.91 C 385.328 95.91 385.328 103.91 380 103.91 C 374.672 103.91 374.672 95.91 380 95.91 Z"></path><path fill="#000000" d="M 321 144.41 C 326.328 144.41 326.328 152.41 321 152.41 C 315.672 152.41 315.672 144.41 321 144.41 Z"></path><path fill="#000000" d="M 263 125.98000000000002 C 268.328 125.98000000000002 268.328 133.98000000000002 263 133.98000000000002 C 257.672 133.98000000000002 257.672 125.98000000000002 263 125.98000000000002 Z"></path><path fill="#000000" d="M 204 76.51 C 209.328 76.51 209.328 84.51 204 84.51 C 198.672 84.51 198.672 76.51 204 76.51 Z"></path><path fill="#000000" d="M 146 120.16 C 151.328 120.16 151.328 128.16 146 128.16 C 140.672 128.16 140.672 120.16 146 120.16 Z"></path><path fill="#000000" d="M 87 113.37 C 92.328 113.37 92.328 121.37 87 121.37 C 81.672 121.37 81.672 113.37 87 113.37 Z"></path><path fill="#000000" d="M 29 92.03 C 34.328 92.03 34.328 100.03 29 100.03 C 23.672 100.03 23.672 92.03 29 92.03 Z"></path></g><g class="highcharts-series" visibility="visible"  transform="translate(116,137) scale(1 1)" clip-path="url(#highcharts-69)"><path fill="none" d="M 29.23076923076923 38.80000000000001 C 29.23076923076923 38.80000000000001 64.3076923076923 75.01333333333334 87.6923076923077 90.53333333333333 C 111.0769230769231 106.05333333333334 122.76923076923076 116.4 146.15384615384616 116.4 C 169.53846153846152 116.4 181.23076923076923 64.66666666666666 204.6153846153846 64.66666666666666 C 228 64.66666666666666 239.6923076923077 98.29333333333334 263.0769230769231 109.93333333333334 C 286.46153846153845 121.57333333333332 298.1538461538462 122.86666666666666 321.53846153846155 122.86666666666666 C 344.92307692307696 122.86666666666666 356.61538461538464 90.53333333333333 380 90.53333333333333 C 403.38461538461536 90.53333333333333 415.07692307692304 124.15999999999998 438.46153846153845 135.8 C 461.8461538461538 147.44 473.53846153846155 148.73333333333335 496.9230769230769 148.73333333333335 C 520.3076923076924 148.73333333333335 532 97 555.3846153846155 97 C 578.7692307692308 97 590.4615384615386 97 613.8461538461539 97 C 637.2307692307693 97 648.9230769230769 122.86666666666666 672.3076923076924 122.86666666666666 C 695.6923076923078 122.86666666666666 730.7692307692308 38.80000000000001 730.7692307692308 38.80000000000001" stroke="#ba0f27" stroke-width="2"  stroke-linejoin="round" stroke-linecap="round"></path></g><g class="highcharts-markers" visibility="visible"  transform="translate(116,137) scale(1 1)" clip-path="none"><path fill="#ba0f27" d="M 730 34.80000000000001 L 734 38.80000000000001 730 42.80000000000001 726 38.80000000000001 Z"></path><path fill="#ba0f27" d="M 672 118.86666666666666 L 676 122.86666666666666 672 126.86666666666666 668 122.86666666666666 Z"></path><path fill="#ba0f27" d="M 613 93 L 617 97 613 101 609 97 Z"></path><path fill="#ba0f27" d="M 555 93 L 559 97 555 101 551 97 Z"></path><path fill="#ba0f27" d="M 496 144.73333333333335 L 500 148.73333333333335 496 152.73333333333335 492 148.73333333333335 Z"></path><path fill="#ba0f27" d="M 438 131.8 L 442 135.8 438 139.8 434 135.8 Z"></path><path fill="#ba0f27" d="M 380 86.53333333333333 L 384 90.53333333333333 380 94.53333333333333 376 90.53333333333333 Z"></path><path fill="#ba0f27" d="M 321 118.86666666666666 L 325 122.86666666666666 321 126.86666666666666 317 122.86666666666666 Z"></path><path fill="#ba0f27" d="M 263 105.93333333333334 L 267 109.93333333333334 263 113.93333333333334 259 109.93333333333334 Z"></path><path fill="#ba0f27" d="M 204 60.66666666666666 L 208 64.66666666666666 204 68.66666666666666 200 64.66666666666666 Z"></path><path fill="#ba0f27" d="M 146 112.4 L 150 116.4 146 120.4 142 116.4 Z"></path><path fill="#ba0f27" d="M 87 86.53333333333333 L 91 90.53333333333333 87 94.53333333333333 83 90.53333333333333 Z"></path><path fill="#ba0f27" d="M 29 34.80000000000001 L 33 38.80000000000001 29 42.80000000000001 25 38.80000000000001 Z"></path></g></g><text x="520" text-anchor="middle" class="highcharts-title"  style="color:#777;font-size:18px;fill:#777;width:976px;" y="24"><tspan style="fill:#ba0f27;font-size:24px;font-weight:bold;font-family: 'lora'">Worldwide non-commercial space launches</tspan><tspan style="font-family: 'lora'" x="520" dy="21"> correlates with </tspan><tspan style="fill:#000000;font-size:24px;font-weight:bold;font-family: 'lora'" x="520" dy="29">Sociology doctorates awarded (US)</tspan></text><g class="highcharts-legend"  transform="translate(255,367)"><g ><g><g class="highcharts-legend-item"  transform="translate(8,3)"><path fill="none" d="M 0 11 L 16 11" stroke="#000000" stroke-width="2"></path><path fill="#000000" d="M 8 7 C 13.328 7 13.328 15 8 15 C 2.6719999999999997 15 2.6719999999999997 7 8 7 Z"></path><text x="21" style="color:#333333;font-size:12px;font-weight:bold;cursor:pointer;fill:#333333;" text-anchor="start"  y="15"><tspan>Sociology doctorates awarded (US)</tspan></text></g><g class="highcharts-legend-item"  transform="translate(249.18333435058594,3)"><path fill="none" d="M 0 11 L 16 11" stroke="#ba0f27" stroke-width="2"></path><path fill="#ba0f27" d="M 8 7 L 12 11 8 15 4 11 Z"></path><text x="21" y="15" style="color:#333333;font-size:12px;font-weight:bold;cursor:pointer;fill:#333333;" text-anchor="start" ><tspan>Worldwide non-commercial space launches</tspan></text></g></g></g></g><g class="highcharts-axis-labels highcharts-xaxis-labels" ><text x="145.23076923076923" style="color:#000000;cursor:default;font-size:11px;fill:#000000;" text-anchor="middle" transform="translate(0,0)" y="350" opacity="1">1997</text><text x="203.69230769230768" style="color:#000000;cursor:default;font-size:11px;fill:#000000;" text-anchor="middle" transform="translate(0,0)" y="350" opacity="1">1998</text><text x="262.15384615384613" style="color:#000000;cursor:default;font-size:11px;fill:#000000;" text-anchor="middle" transform="translate(0,0)" y="350" opacity="1">1999</text><text x="320.6153846153846" style="color:#000000;cursor:default;font-size:11px;fill:#000000;" text-anchor="middle" transform="translate(0,0)" y="350" opacity="1">2000</text><text x="379.0769230769231" style="color:#000000;cursor:default;font-size:11px;fill:#000000;" text-anchor="middle" transform="translate(0,0)" y="350" opacity="1">2001</text><text x="437.53846153846155" style="color:#000000;cursor:default;font-size:11px;fill:#000000;" text-anchor="middle" transform="translate(0,0)" y="350" opacity="1">2002</text><text x="496.00000000000006" style="color:#000000;cursor:default;font-size:11px;fill:#000000;" text-anchor="middle" transform="translate(0,0)" y="350" opacity="1">2003</text><text x="554.4615384615383" style="color:#000000;cursor:default;font-size:11px;fill:#000000;" text-anchor="middle" transform="translate(0,0)" y="350" opacity="1">2004</text><text x="612.9230769230769" style="color:#000000;cursor:default;font-size:11px;fill:#000000;" text-anchor="middle" transform="translate(0,0)" y="350" opacity="1">2005</text><text x="671.3846153846154" style="color:#000000;cursor:default;font-size:11px;fill:#000000;" text-anchor="middle" transform="translate(0,0)" y="350" opacity="1">2006</text><text x="729.8461538461538" style="color:#000000;cursor:default;font-size:11px;fill:#000000;" text-anchor="middle" transform="translate(0,0)" y="350" opacity="1">2007</text><text x="788.3076923076923" style="color:#000000;cursor:default;font-size:11px;fill:#000000;" text-anchor="middle" transform="translate(0,0)" y="350" opacity="1">2008</text><text x="846.7692307692307" style="color:#000000;cursor:default;font-size:11px;fill:#000000;" text-anchor="middle" transform="translate(0,0)" y="350" opacity="1">2009</text></g><g class="highcharts-axis-labels highcharts-xaxis-labels" ><text x="145.23076923076923" style="color:#ba0f27;cursor:default;font-size:11px;fill:#ba0f27;" text-anchor="middle" transform="translate(0,0)" y="122" opacity="1">1997</text><text x="203.69230769230768" style="color:#ba0f27;cursor:default;font-size:11px;fill:#ba0f27;" text-anchor="middle" transform="translate(0,0)" y="122" opacity="1">1998</text><text x="262.15384615384613" style="color:#ba0f27;cursor:default;font-size:11px;fill:#ba0f27;" text-anchor="middle" transform="translate(0,0)" y="122" opacity="1">1999</text><text x="320.6153846153846" style="color:#ba0f27;cursor:default;font-size:11px;fill:#ba0f27;" text-anchor="middle" transform="translate(0,0)" y="122" opacity="1">2000</text><text x="379.0769230769231" style="color:#ba0f27;cursor:default;font-size:11px;fill:#ba0f27;" text-anchor="middle" transform="translate(0,0)" y="122" opacity="1">2001</text><text x="437.53846153846155" style="color:#ba0f27;cursor:default;font-size:11px;fill:#ba0f27;" text-anchor="middle" transform="translate(0,0)" y="122" opacity="1">2002</text><text x="496.00000000000006" style="color:#ba0f27;cursor:default;font-size:11px;fill:#ba0f27;" text-anchor="middle" transform="translate(0,0)" y="122" opacity="1">2003</text><text x="554.4615384615383" style="color:#ba0f27;cursor:default;font-size:11px;fill:#ba0f27;" text-anchor="middle" transform="translate(0,0)" y="122" opacity="1">2004</text><text x="612.9230769230769" style="color:#ba0f27;cursor:default;font-size:11px;fill:#ba0f27;" text-anchor="middle" transform="translate(0,0)" y="122" opacity="1">2005</text><text x="671.3846153846154" style="color:#ba0f27;cursor:default;font-size:11px;fill:#ba0f27;" text-anchor="middle" transform="translate(0,0)" y="122" opacity="1">2006</text><text x="729.8461538461538" style="color:#ba0f27;cursor:default;font-size:11px;fill:#ba0f27;" text-anchor="middle" transform="translate(0,0)" y="122" opacity="1">2007</text><text x="788.3076923076923" style="color:#ba0f27;cursor:default;font-size:11px;fill:#ba0f27;" text-anchor="middle" transform="translate(0,0)" y="122" opacity="1">2008</text><text x="846.7692307692307" style="color:#ba0f27;cursor:default;font-size:11px;fill:#ba0f27;" text-anchor="middle" transform="translate(0,0)" y="122" opacity="1">2009</text></g><g class="highcharts-axis-labels highcharts-yaxis-labels" ><text x="891" style="color:#000000;cursor:default;font-size:11px;fill:#000000;width:333px;text-overflow:clip;" text-anchor="start" transform="translate(0,0)" y="334" opacity="1"><tspan>500 Degrees awarded</tspan></text><text x="891" style="color:#000000;cursor:default;font-size:11px;fill:#000000;width:333px;text-overflow:clip;" text-anchor="start" transform="translate(0,0)" y="286" opacity="1"><tspan>550 Degrees awarded</tspan></text><text x="891" style="color:#000000;cursor:default;font-size:11px;fill:#000000;width:333px;text-overflow:clip;" text-anchor="start" transform="translate(0,0)" y="237" opacity="1"><tspan>600 Degrees awarded</tspan></text><text x="891" style="color:#000000;cursor:default;font-size:11px;fill:#000000;width:333px;text-overflow:clip;" text-anchor="start" transform="translate(0,0)" y="189" opacity="1"><tspan>650 Degrees awarded</tspan></text><text x="891" style="color:#000000;cursor:default;font-size:11px;fill:#000000;width:333px;text-overflow:clip;" text-anchor="start" transform="translate(0,0)" y="140" opacity="1"><tspan>700 Degrees awarded</tspan></text></g><g class="highcharts-axis-labels highcharts-yaxis-labels" ><text x="101" style="color:#ba0f27;cursor:default;font-size:11px;fill:#ba0f27;width:333px;text-overflow:clip;" text-anchor="end" transform="translate(0,0)" y="269" opacity="1"><tspan>40 Launches</tspan></text><text x="101" style="color:#ba0f27;cursor:default;font-size:11px;fill:#ba0f27;width:333px;text-overflow:clip;" text-anchor="end" transform="translate(0,0)" y="205" opacity="1"><tspan>50 Launches</tspan></text><text x="101" style="color:#ba0f27;cursor:default;font-size:11px;fill:#ba0f27;width:333px;text-overflow:clip;" text-anchor="end" transform="translate(0,0)" y="334" opacity="1"><tspan>30 Launches</tspan></text><text x="101" style="color:#ba0f27;cursor:default;font-size:11px;fill:#ba0f27;width:333px;text-overflow:clip;" text-anchor="end" transform="translate(0,0)" y="140" opacity="1"><tspan>60 Launches</tspan></text></g><g class="highcharts-tooltip"  style="cursor:default;padding:0;white-space:nowrap;" transform="translate(0,-9999)"><path fill="none" d="M 3 0 L 13 0 C 16 0 16 0 16 3 L 16 13 C 16 16 16 16 13 16 L 3 16 C 0 16 0 16 0 13 L 0 3 C 0 0 0 0 3 0"  stroke="black" stroke-opacity="0.049999999999999996" stroke-width="5" transform="translate(1, 1)"></path><path fill="none" d="M 3 0 L 13 0 C 16 0 16 0 16 3 L 16 13 C 16 16 16 16 13 16 L 3 16 C 0 16 0 16 0 13 L 0 3 C 0 0 0 0 3 0"  stroke="black" stroke-opacity="0.09999999999999999" stroke-width="3" transform="translate(1, 1)"></path><path fill="none" d="M 3 0 L 13 0 C 16 0 16 0 16 3 L 16 13 C 16 16 16 16 13 16 L 3 16 C 0 16 0 16 0 13 L 0 3 C 0 0 0 0 3 0"  stroke="black" stroke-opacity="0.15" stroke-width="1" transform="translate(1, 1)"></path><path fill="rgb(249, 249, 249)" fill-opacity=" .85" d="M 3 0 L 13 0 C 16 0 16 0 16 3 L 16 13 C 16 16 16 16 13 16 L 3 16 C 0 16 0 16 0 13 L 0 3 C 0 0 0 0 3 0"></path><text x="8"  style="font-size:12px;color:#333333;fill:#333333;" transform="translate(0,20)"></text></g><text x="1030" text-anchor="end"  style="cursor:pointer;color:#909090;font-size:9px;fill:#909090;" y="405">tylervigen.com</text></svg>